<svg id="SvgjsSvg1001" width="288" height="288" xmlns="http://www.w3.org/2000/svg" version="1.1" xmlns:xlink="http://www.w3.org/1999/xlink" xmlns:svgjs="http://svgjs.com/svgjs"><defs id="SvgjsDefs1002"></defs><g id="SvgjsG1008"><svg xmlns="http://www.w3.org/2000/svg" fill="none" viewBox="0 0 154 143" width="288" height="288"><g clip-path="url(#a)" fill="#000000" class="color000 svgShape"><path fill="#f2f2f2" d="M103.807 101.374H48.5629C43.9194 101.374 40.1416 97.6119 40.1416 92.9875V37.9724C40.1416 33.348 43.9194 29.5859 48.5629 29.5859H103.807C108.45 29.5859 112.228 33.348 112.228 37.9724V92.9875C112.228 97.6119 108.45 101.374 103.807 101.374ZM48.5629 30.9278C44.6561 30.9278 41.489 34.0818 41.489 37.9724V92.9875C41.489 96.8782 44.6561 100.032 48.5629 100.032H87.26C100.305 100.032 110.881 89.5005 110.881 76.5091V37.9724C110.881 34.0818 107.714 30.9278 103.807 30.9278L48.5629 30.9278Z" class="colorF2F2F2 svgShape"></path><path fill="#f2f2f2" d="M54.5185 36.6484C51.9039 36.6484 49.7769 38.7667 49.7769 41.3705V48.7615C49.7769 51.3653 51.9039 53.4836 54.5185 53.4836H61.9403C64.555 53.4836 66.682 51.3653 66.682 48.7615V41.3705C66.682 38.7667 64.555 36.6484 61.9403 36.6484H54.5185zM54.5185 57.4551C51.9039 57.4551 49.7769 59.5733 49.7769 62.1771V69.5682C49.7769 72.172 51.9039 74.2902 54.5185 74.2902H61.9403C64.555 74.2902 66.682 72.172 66.682 69.5682V62.1771C66.682 59.5733 64.555 57.4551 61.9403 57.4551H54.5185zM54.5185 78.2617C51.9039 78.2617 49.7769 80.3799 49.7769 82.9838V90.3748C49.7769 92.9786 51.9039 95.0968 54.5185 95.0968H61.9403C64.555 95.0968 66.682 92.9786 66.682 90.3748V82.9838C66.682 80.3799 64.555 78.2617 61.9403 78.2617H54.5185z" class="colorF2F2F2 svgShape"></path><path fill="#7651dd" d="M59.44 18.6172C56.1455 18.6172 53.4653 21.2862 53.4653 24.5671V33.88C53.4653 37.1609 56.1455 39.8299 59.44 39.8299H68.7916C72.0862 39.8299 74.7663 37.1609 74.7663 33.88V24.5671C74.7663 21.2862 72.0862 18.6172 68.7916 18.6172H59.44zM90.2281 44.6426C86.9335 44.6426 84.2534 47.3116 84.2534 50.5925V59.9054C84.2534 63.1863 86.9335 65.8553 90.2281 65.8553H99.5797C102.874 65.8553 105.554 63.1863 105.554 59.9054V50.5925C105.554 47.3116 102.874 44.6426 99.5797 44.6426H90.2281z" class="color81266A svgShape"></path><path fill="#7261a0" d="M76.8433 138.382L74.9435 138.366L74.1025 130.898L76.9064 130.922L76.8433 138.382Z" class="colorA0616A svgShape"></path><path fill="#332e41" d="M70.7578 141.391C70.7537 141.857 71.1307 142.24 71.6 142.244L75.3772 142.276L76.0385 140.941L76.2813 142.282L77.7066 142.295L77.3467 137.51L76.8508 137.477L74.8283 137.338L74.1758 137.295L74.1643 138.649L71.13 140.698C70.8992 140.855 70.7602 141.113 70.7578 141.391Z" class="color2F2E41 svgShape"></path><path fill="#7261a0" d="M86.5093 138.382L84.6095 138.366L83.7686 130.898L86.5725 130.922L86.5093 138.382Z" class="colorA0616A svgShape"></path><path fill="#332e41" d="M80.4239 141.391C80.4197 141.857 80.7967 142.24 81.266 142.244L85.0432 142.276 85.7045 140.941 85.9474 142.282 87.3726 142.295 87.0127 137.51 86.5168 137.477 84.4943 137.338 83.8418 137.295 83.8303 138.649 80.796 140.698C80.5652 140.855 80.4262 141.113 80.4239 141.391zM69.3879 78.0059L77.0887 78.248 84.3842 79.8625C84.3842 79.8625 83.6547 80.7505 86.0865 83.1723 86.0865 83.1723 89.3289 88.8231 87.0592 94.3124L86.0865 116.27C86.0865 116.27 88.9226 131.748 86.7557 136.674L83.8917 136.853 79.0455 116.448 76.6834 94.4739 75.5485 116.108C75.5485 116.108 79.8901 130.958 77.1486 136.853L74.0467 136.675 68.7394 116.108C68.7394 116.108 66.4697 92.375 66.7939 87.8544 67.1182 83.3337 69.3879 78.0059 69.3879 78.0059z" class="color2F2E41 svgShape"></path><path fill="#7261a0" d="M95.2493 43.3092C94.1966 43.5806 93.5642 44.6506 93.8368 45.6989C93.9617 46.1793 94.256 46.5701 94.6384 46.8283L94.6383 46.831L94.4889 50.4332L97.257 51.7089L97.478 46.1656L97.4587 46.1662C97.6987 45.7404 97.7817 45.2259 97.6491 44.7159C97.3765 43.6675 96.3021 43.0377 95.2493 43.3092Z" class="colorA0616A svgShape"></path><path fill="#443d56" d="M79.778 56.1649C79.1965 55.5909 78.8592 54.8127 78.8466 53.9664C78.8296 52.8311 79.4009 51.8007 80.3747 51.2101C81.4962 50.5299 82.8985 50.5988 83.9475 51.3852L92.6398 57.9028L94.1887 48.5137L97.514 49.5797L96.7206 61.8057C96.665 62.6609 96.1797 63.4143 95.4222 63.821C94.6647 64.2277 93.7661 64.2175 93.0181 63.7937L80.4563 56.6764C80.2039 56.5334 79.9767 56.361 79.778 56.1649Z" class="color3F3D56 svgShape"></path><path fill="#7261a0" d="M66.5234 38.0568C67.0791 38.9877 66.7718 40.191 65.8371 40.7443C65.4087 40.9979 64.9234 41.0691 64.4694 40.9843L64.4676 40.9863L62.0269 43.6491L59.1592 42.6142L62.9213 38.5228L62.9346 38.5367C63.0652 38.066 63.37 37.6425 63.8248 37.3733C64.7595 36.8199 65.9677 37.126 66.5234 38.0568Z" class="colorA0616A svgShape"></path><path fill="#443d56" d="M67.5779 57.9214L53.6253 54.1682C52.7946 53.9447 52.1492 53.3218 51.8988 52.5019C51.6484 51.682 51.8364 50.8067 52.4015 50.1604L60.4817 40.9219L63.5968 42.4963L58.0587 50.25L68.8394 51.7161C70.1403 51.893 71.1849 52.8274 71.5004 54.0967C71.7744 55.1989 71.4516 56.3312 70.6369 57.1255C70.0297 57.7177 69.2399 58.0338 68.4211 58.0337C68.1414 58.0337 67.8582 57.9968 67.5779 57.9214Z" class="color3F3D56 svgShape"></path><path fill="#443d56" d="M87.4698 81.2358L67.9588 82.1271C67.423 81.3167 67.5681 80.0981 68.3185 78.5722C71.152 72.8109 69.0001 61.9117 67.5525 56.2364C67.1463 54.6441 68.2366 53.0611 69.8782 52.8976L71.7178 52.7144L73.4183 47.5449H79.3739L81.8447 50.356L86.0378 52.8927C85.2746 60.7217 82.0225 71.777 86.6555 77.3212C87.6688 78.5337 87.9561 79.845 87.4698 81.2358Z" class="color3F3D56 svgShape"></path><path fill="#7261a0" d="M75.6384 47.6652C78.8421 47.6652 81.4393 45.0788 81.4393 41.8883C81.4393 38.6978 78.8421 36.1113 75.6384 36.1113C72.4346 36.1113 69.8374 38.6978 69.8374 41.8883C69.8374 45.0788 72.4346 47.6652 75.6384 47.6652Z" class="colorA0616A svgShape"></path><path fill="#332e41" d="M82.2029 38.1894C83.01 35.259 74.2135 32.7461 72.5041 35.106C72.2664 34.7705 71.388 34.5667 70.9849 34.6696C70.5819 34.7725 70.2429 35.0298 69.9122 35.2789C69.4575 35.6267 68.9862 35.9869 68.7072 36.4871C68.4261 36.9852 68.3827 37.6645 68.761 38.0967C69.0607 38.4405 69.5873 40.2671 70.0379 40.3577C70.352 40.4215 70.6166 40.4729 70.844 40.51C71.0465 40.2156 71.5631 39.8459 71.5259 39.4898C71.8318 39.6915 71.72 40.0464 71.6583 40.4091C71.453 41.6169 66.8261 50.9665 69.4761 48.2114C69.7386 48.3658 70.0631 48.5099 70.4372 48.6416C71.0717 47.6886 71.5926 46.5647 71.9357 45.3894L71.9382 45.4111C72.0563 46.4325 72.8058 47.2706 73.7974 47.5567C77.7753 48.7043 80.993 47.0203 82.0999 43.9835C81.6947 43.1643 81.5182 43.2532 81.5545 43.2289C82.0603 42.8894 82.7555 43.1114 82.9729 43.679C83.037 43.8463 83.0953 43.9892 83.1458 44.0967C83.7224 42.0425 84.4083 42.339 82.2029 38.1894Z" class="color2F2E41 svgShape"></path><path fill="#332e41" d="M79.4585 36.0642L79.0522 33.9954C79.0181 33.8215 78.9856 33.6329 79.0644 33.474C79.1655 33.2698 79.4256 33.1852 79.6519 33.2177C79.8782 33.2502 80.0474 33.4561 80.2725 33.4957C81.0553 33.6335 82.0899 32.8636 82.3703 34.8114C82.4873 35.6235 83.7885 35.7092 84.2231 36.4062C84.6577 37.1032 84.711 38.1092 84.1179 38.6786C83.6443 39.1334 82.8836 39.1859 82.2684 38.9536C81.6532 38.7213 81.1594 38.252 80.7282 37.7572C80.2969 37.2624 79.9063 36.7269 79.4089 36.2981" class="color2F2E41 svgShape"></path><path fill="#7651dd" d="M82.5127 39.2104C80.9254 38.9895 79.8435 38.4146 79.2969 37.5018 78.5816 36.3068 79.0608 34.991 79.0815 34.9355L79.417 35.0598C79.4126 35.0719 78.9779 36.2763 79.6063 37.3223 80.0952 38.1359 81.0897 38.6524 82.5622 38.8573L82.5127 39.2104zM89.962 16.8568C85.2955 16.8568 81.4985 13.0756 81.4985 8.42842 81.4985 3.78127 85.2955 0 89.962 0 94.6285 0 98.4255 3.78127 98.4255 8.42842 98.4255 13.0756 94.6285 16.8568 89.962 16.8568zM89.962 3.37137C87.1618 3.37137 84.8839 5.6398 84.8839 8.42842 84.8839 11.217 87.1618 13.4855 89.962 13.4855 92.7622 13.4855 95.0401 11.217 95.0401 8.42842 95.0401 5.6398 92.7622 3.37137 89.962 3.37137z" class="color81266A svgShape"></path><path fill="#7651dd" d="M102.984 22.5847C102.569 22.5847 102.153 22.4341 101.826 22.1287L93.8828 14.7152C93.2001 14.0789 93.1654 13.0122 93.8051 12.3332C94.4432 11.6517 95.5144 11.6179 96.197 12.2558L104.141 19.6694C104.823 20.3056 104.858 21.3723 104.218 22.0514C103.885 22.4061 103.435 22.5847 102.984 22.5847Z" class="color81266A svgShape"></path><path fill="#f2f2f2" d="M138.885 138.191C139.46 138.226 139.778 137.514 139.343 137.099L139.3 136.928C139.305 136.914 139.311 136.9 139.317 136.887C139.899 135.505 141.871 135.514 142.448 136.898C142.961 138.127 143.613 139.357 143.773 140.656C143.845 141.23 143.813 141.814 143.685 142.376C144.885 139.766 145.517 136.915 145.517 134.048C145.517 133.328 145.477 132.607 145.396 131.889C145.33 131.301 145.238 130.717 145.119 130.138C144.477 127.01 143.086 124.03 141.08 121.541C140.115 121.016 139.311 120.195 138.825 119.212C138.651 118.857 138.514 118.475 138.449 118.086C138.559 118.101 138.863 116.436 138.78 116.334C138.933 116.103 139.207 115.988 139.374 115.762C140.205 114.641 141.349 114.836 141.947 116.361C143.224 117.002 143.236 118.066 142.453 119.09C141.954 119.741 141.886 120.622 141.449 121.319C141.494 121.376 141.54 121.432 141.585 121.489C142.41 122.543 143.124 123.675 143.725 124.865C143.555 123.543 143.806 121.95 144.234 120.923C144.721 119.753 145.634 118.767 146.438 117.756C147.403 116.541 149.383 117.071 149.553 118.611C149.555 118.626 149.556 118.641 149.558 118.656C149.439 118.723 149.322 118.794 149.207 118.87C148.556 119.299 148.781 120.305 149.553 120.424L149.571 120.426C149.527 120.855 149.454 121.279 149.346 121.697C150.377 125.668 148.151 127.115 144.972 127.18C144.901 127.216 144.833 127.252 144.763 127.286C145.085 128.189 145.342 129.115 145.533 130.054C145.704 130.884 145.823 131.722 145.889 132.564C145.972 133.627 145.965 134.695 145.875 135.756L145.88 135.718C146.109 134.55 146.746 133.458 147.671 132.702C149.048 131.575 150.995 131.16 152.481 130.254C153.197 129.818 154.113 130.382 153.989 131.208L153.982 131.247C153.761 131.337 153.545 131.441 153.337 131.557C153.217 131.624 153.1 131.696 152.986 131.771C152.334 132.2 152.559 133.206 153.332 133.325L153.349 133.328C153.362 133.329 153.373 133.331 153.385 133.333C153.005 134.231 152.476 135.064 151.814 135.782C151.17 139.249 148.4 139.578 145.438 138.569H145.436C145.112 139.974 144.639 141.346 144.031 142.654H139.011C138.993 142.599 138.976 142.541 138.96 142.486C139.424 142.514 139.892 142.488 140.349 142.403C139.977 141.948 139.604 141.489 139.232 141.034C139.223 141.025 139.216 141.016 139.209 141.007C139.02 140.775 138.829 140.543 138.64 140.31L138.64 140.31C138.628 139.595 138.714 138.882 138.885 138.191Z" class="colorF2F2F2 svgShape"></path><path fill="#cccccc" d="M0 142.67C0 142.853 0.147654 143 0.331523 143H153.629C153.813 143 153.961 142.853 153.961 142.67C153.961 142.487 153.813 142.34 153.629 142.34H0.331523C0.147654 142.34 0 142.487 0 142.67Z" class="colorCCC svgShape"></path></g><defs><clipPath id="a"><rect width="154" height="143" fill="#ffffff" class="colorfff svgShape"></rect></clipPath></defs></svg></g></svg>