<?xml version="1.0" encoding="UTF-8"?>
<!DOCTYPE svg PUBLIC "-//W3C//DTD SVG 1.1//EN" "http://www.w3.org/Graphics/SVG/1.1/DTD/svg11.dtd">
<svg xmlns="http://www.w3.org/2000/svg" version="1.1" width="746px" height="1024px" style="shape-rendering:geometricPrecision; text-rendering:geometricPrecision; image-rendering:optimizeQuality; fill-rule:evenodd; clip-rule:evenodd" xmlns:xlink="http://www.w3.org/1999/xlink">
<g><path style="opacity:0.792" fill="#0a0a09" d="M 138.5,-0.5 C 141.167,-0.5 143.833,-0.5 146.5,-0.5C 157.651,4.66296 168.151,10.9963 178,18.5C 179.446,21.9652 179.279,25.4652 177.5,29C 178.611,32.0551 180.111,34.8884 182,37.5C 182.667,38.8333 182.667,40.1667 182,41.5C 174.402,52.2992 164.402,59.9659 152,64.5C 147.816,64.4251 143.65,64.4251 139.5,64.5C 137.932,67.6936 136.265,70.8602 134.5,74C 130.148,74.7521 125.815,75.5855 121.5,76.5C 118.959,81.0825 116.293,85.5825 113.5,90C 115.5,90.6667 117.5,91.3333 119.5,92C 120.022,92.5613 120.355,93.228 120.5,94C 119.47,96.5602 118.303,99.0602 117,101.5C 108.178,112.478 99.845,123.811 92,135.5C 79.0833,157.673 65.4167,179.34 51,200.5C 50.5439,201.744 51.0439,202.577 52.5,203C 99.0272,217.177 145.527,231.343 192,245.5C 194.051,240.786 196.885,236.619 200.5,233C 191.053,229.761 181.553,226.594 172,223.5C 171.333,222.5 171.333,221.5 172,220.5C 176.833,215 181.667,209.5 186.5,204C 177.435,198.561 169.268,192.061 162,184.5C 160.336,181.711 160.17,178.877 161.5,176C 173.849,172.108 185.849,167.442 197.5,162C 188.667,153.833 179.833,145.667 171,137.5C 168.243,134.571 166.076,131.238 164.5,127.5C 165.381,126.029 166.714,125.196 168.5,125C 183.65,123.336 198.65,120.836 213.5,117.5C 213.833,116.833 214.167,116.167 214.5,115.5C 211.106,96.5783 208.606,77.5783 207,58.5C 207.414,58.0426 207.914,57.7093 208.5,57.5C 225.248,66.6237 242.748,73.9571 261,79.5C 264.784,72.1491 267.784,64.4824 270,56.5C 273.256,41.5518 276.256,26.5518 279,11.5C 279.196,9.71387 280.029,8.38054 281.5,7.5C 289.778,15.3838 296.612,24.3838 302,34.5C 309.897,49.2879 316.397,64.6213 321.5,80.5C 342.395,74.5568 360.728,64.2235 376.5,49.5C 379.015,72.845 373.349,94.345 359.5,114C 374.269,117.8 389.269,119.967 404.5,120.5C 404.657,121.873 404.49,123.207 404,124.5C 395.972,132.752 387.472,140.418 378.5,147.5C 381.519,151.539 384.019,155.872 386,160.5C 386.162,170.873 385.829,181.206 385,191.5C 386.167,192.667 387.333,193.833 388.5,195C 392.452,194.566 396.452,194.566 400.5,195C 410.274,206.719 419.441,218.885 428,231.5C 441.804,246.298 454.471,261.965 466,278.5C 469.229,289.534 466.063,298.034 456.5,304C 453.544,304.989 450.544,305.822 447.5,306.5C 438.244,304.937 428.911,304.103 419.5,304C 376.484,302.691 333.484,301.191 290.5,299.5C 290.684,343.711 293.851,387.711 300,431.5C 302.606,439.986 305.606,448.319 309,456.5C 326.033,488.187 343.033,519.853 360,551.5C 365.655,568.775 369.655,586.442 372,604.5C 379.564,652.891 382.231,701.558 380,750.5C 379.337,766.142 376.837,781.475 372.5,796.5C 371.311,797.429 369.978,797.762 368.5,797.5C 367.997,790.131 367.164,782.798 366,775.5C 358.767,770.975 350.933,767.808 342.5,766C 328.239,763.941 313.906,762.775 299.5,762.5C 299.334,768.509 299.501,774.509 300,780.5C 306.637,814.294 311.971,848.294 316,882.5C 317.131,886.894 318.465,891.227 320,895.5C 320.975,901.17 320.475,906.67 318.5,912C 321.073,922.126 323.407,932.293 325.5,942.5C 326.675,942.281 327.675,942.614 328.5,943.5C 336.234,957.196 340.401,971.863 341,987.5C 339.878,989.624 338.378,991.457 336.5,993C 312.943,1001.3 288.943,1002.97 264.5,998C 260.791,997.154 257.791,995.321 255.5,992.5C 258.726,987.098 262.559,982.098 267,977.5C 279.475,968.529 289.642,957.529 297.5,944.5C 295.731,935.819 293.897,927.153 292,918.5C 290.936,916.307 289.602,914.307 288,912.5C 282.485,880.593 275.819,848.927 268,817.5C 265.775,803.816 263.442,790.149 261,776.5C 260.501,771.845 260.334,767.179 260.5,762.5C 246.466,762.183 232.466,762.683 218.5,764C 201.331,766.876 184.331,770.542 167.5,775C 170.596,803.059 173.096,831.226 175,859.5C 176.341,870.549 178.008,881.549 180,892.5C 180.667,899.5 180.667,906.5 180,913.5C 179.586,913.957 179.086,914.291 178.5,914.5C 177.562,922.497 177.729,930.497 179,938.5C 179.991,939.939 181.324,940.939 183,941.5C 190.141,956.73 193.808,972.73 194,989.5C 190.279,991.599 186.279,992.932 182,993.5C 156.127,997.388 130.293,997.388 104.5,993.5C 104.34,991.801 104.506,990.134 105,988.5C 109.373,981.12 114.873,974.62 121.5,969C 132.818,961.67 142.818,953.003 151.5,943C 150.436,935.194 149.603,927.361 149,919.5C 147.934,917.901 146.434,916.901 144.5,916.5C 140.895,882.427 136.395,848.427 131,814.5C 128.505,794.892 127.171,775.226 127,755.5C 137.36,733.418 147.527,711.251 157.5,689C 157.04,687.699 156.706,686.366 156.5,685C 164.917,606.417 164.084,527.917 154,449.5C 152.977,436.084 153.477,422.751 155.5,409.5C 154.118,403.209 152.951,396.876 152,390.5C 151.759,374.147 151.092,357.814 150,341.5C 149.056,340.737 148.556,339.737 148.5,338.5C 150.063,335.043 151.896,331.71 154,328.5C 155.183,311.391 157.683,294.391 161.5,277.5C 111.224,262.18 60.8906,247.014 10.5,232C 5.22618,229.563 1.55952,225.729 -0.5,220.5C -0.5,215.833 -0.5,211.167 -0.5,206.5C 12.0196,186.465 25.1863,166.799 39,147.5C 53.2453,122.003 68.2453,97.0028 84,72.5C 86,69.8333 88,69.8333 90,72.5C 92.2823,68.2823 95.2823,64.6156 99,61.5C 111.57,40.4348 124.737,19.7681 138.5,-0.5 Z M 356.5,202.5 C 361.067,208.246 365.9,213.913 371,219.5C 370.667,221.833 370.333,224.167 370,226.5C 380.353,238.019 390.52,249.685 400.5,261.5C 380.125,262.455 359.791,261.788 339.5,259.5C 337.762,255.287 336.429,250.954 335.5,246.5C 335.39,244.626 336.056,243.126 337.5,242C 347.711,240.154 358.044,238.987 368.5,238.5C 368.709,237.914 369.043,237.414 369.5,237C 362.408,228.395 356.742,218.895 352.5,208.5C 353.467,206.21 354.8,204.21 356.5,202.5 Z"/></g>
<g><path style="opacity:1" fill="#ded2c5" d="M 167.5,28.5 C 167.5,29.8333 167.5,31.1667 167.5,32.5C 166.5,32.5 165.5,32.5 164.5,32.5C 157.14,30.3177 149.807,27.8177 142.5,25C 140.833,24.3333 139.167,24.3333 137.5,25C 144.355,28.884 151.688,31.5506 159.5,33C 164.188,35.1277 164.688,37.9611 161,41.5C 152.502,39.2819 144.002,37.4486 135.5,36C 137.156,37.8294 139.156,39.1628 141.5,40C 146.814,41.0299 152.147,41.8632 157.5,42.5C 156.047,49.4567 152.381,54.9567 146.5,59C 143.833,59.6667 141.167,59.6667 138.5,59C 136.845,57.5557 136.178,55.7224 136.5,53.5C 139.247,53.8134 141.914,53.48 144.5,52.5C 144.291,51.914 143.957,51.414 143.5,51C 140.438,50.2585 137.438,50.4252 134.5,51.5C 133.855,57.2145 133.022,62.8811 132,68.5C 120.628,73.918 111.461,71.2513 104.5,60.5C 116.375,41.9148 128.375,23.4148 140.5,5C 142.167,4.33333 143.833,4.33333 145.5,5C 154.167,9.66667 162.833,14.3333 171.5,19C 173.444,21.1529 173.944,23.6529 173,26.5C 172.439,27.0219 171.772,27.3552 171,27.5C 162.307,23.2358 153.807,18.5691 145.5,13.5C 145.167,14 144.833,14.5 144.5,15C 145.34,16.7674 146.673,18.1007 148.5,19C 154.86,22.1799 161.193,25.3466 167.5,28.5 Z"/></g>
<g><path style="opacity:1" fill="#b2e0f8" d="M 371.5,59.5 C 372.461,61.2646 372.795,63.2646 372.5,65.5C 370.59,82.6482 364.757,98.3149 355,112.5C 354.333,114.167 354.333,115.833 355,117.5C 365.493,121.278 376.326,123.611 387.5,124.5C 389.833,125.167 392.167,125.833 394.5,126.5C 388.297,132.87 381.631,138.703 374.5,144C 373.5,144.667 372.5,144.667 371.5,144C 370.267,142.333 368.933,140.833 367.5,139.5C 363.704,135.202 359.704,131.036 355.5,127C 351.814,126.193 348.314,126.693 345,128.5C 327.27,101.195 302.437,91.6955 270.5,100C 256.103,104.279 244.937,112.779 237,125.5C 226.414,144.592 219.414,164.925 216,186.5C 209.014,188.323 203.681,192.323 200,198.5C 198.022,208.069 201.189,215.403 209.5,220.5C 210.492,224.783 210.826,229.116 210.5,233.5C 210.413,238.537 210.746,243.537 211.5,248.5C 210.167,248.5 208.833,248.5 207.5,248.5C 204.193,247.949 200.86,247.616 197.5,247.5C 197.491,245.692 197.991,244.025 199,242.5C 203.349,238.801 205.849,234.134 206.5,228.5C 197.679,226.794 189.012,224.461 180.5,221.5C 179.417,220.635 179.251,219.635 180,218.5C 184.355,213.646 188.522,208.646 192.5,203.5C 185.568,196.739 177.901,190.905 169.5,186C 166.743,184.181 165.743,181.848 166.5,179C 175.5,176 184.5,173 193.5,170C 197.66,168.088 201.66,165.921 205.5,163.5C 197.282,154.113 188.282,145.613 178.5,138C 175.93,135.933 173.93,133.433 172.5,130.5C 187.091,127.449 201.758,124.782 216.5,122.5C 217.833,122.5 219.167,122.5 220.5,122.5C 220.802,119.941 220.468,117.607 219.5,115.5C 216.786,98.8844 214.619,82.2178 213,65.5C 227.577,73.0657 242.743,79.2324 258.5,84C 260.579,84.8077 262.579,84.641 264.5,83.5C 268.886,74.8431 272.386,65.8431 275,56.5C 277.513,43.0853 280.346,29.752 283.5,16.5C 299.176,37.8504 311.176,61.1837 319.5,86.5C 338.883,81.1443 356.216,72.1443 371.5,59.5 Z"/></g>
<g><path style="opacity:1" fill="#625f5b" d="M 167.5,28.5 C 168.451,29.9187 168.784,31.5853 168.5,33.5C 166.901,33.7678 165.568,33.4345 164.5,32.5C 165.5,32.5 166.5,32.5 167.5,32.5C 167.5,31.1667 167.5,29.8333 167.5,28.5 Z"/></g>
<g><path style="opacity:1" fill="#d3cabf" d="M 171.5,32.5 C 172.496,32.4142 173.329,32.7476 174,33.5C 175.874,35.569 176.874,37.9023 177,40.5C 171.187,47.4868 164.354,53.1535 156.5,57.5C 155.686,55.0485 156.186,52.7151 158,50.5C 162.776,44.5725 167.276,38.5725 171.5,32.5 Z"/></g>
<g><path style="opacity:1" fill="#536f76" d="M 371.5,59.5 C 371.56,58.9569 371.893,58.6236 372.5,58.5C 373.797,60.9732 373.797,63.3066 372.5,65.5C 372.795,63.2646 372.461,61.2646 371.5,59.5 Z"/></g>
<g><path style="opacity:1" fill="#9be0dd" d="M 102.5,64.5 C 106.87,68.1964 111.537,71.5297 116.5,74.5C 113.153,79.8695 109.819,85.2028 106.5,90.5C 100.574,88.0426 95.5736,84.376 91.5,79.5C 94.4431,73.9375 98.1098,68.9375 102.5,64.5 Z"/></g>
<g><path style="opacity:1" fill="#f9f8f7" d="M 195.5,300.5 C 192.462,316.548 190.795,332.882 190.5,349.5C 190.167,351.5 189.833,353.5 189.5,355.5C 187.605,371.784 186.105,388.118 185,404.5C 184.124,434.828 183.624,465.161 183.5,495.5C 182.402,543.832 181.235,592.165 180,640.5C 175.103,653.292 169.936,665.958 164.5,678.5C 163.833,678.833 163.167,679.167 162.5,679.5C 164.201,651.844 165.534,624.177 166.5,596.5C 167.166,587.506 167.5,578.34 167.5,569C 167.64,554.305 166.974,539.805 165.5,525.5C 163.433,497.167 161.433,468.833 159.5,440.5C 159.174,431.983 159.507,423.65 160.5,415.5C 161.88,424.018 164.046,432.351 167,440.5C 168.226,448.19 169.559,455.857 171,463.5C 171.508,465.904 172.675,466.571 174.5,465.5C 171.185,445.966 166.518,426.966 160.5,408.5C 158.166,400.997 157.333,393.33 158,385.5C 164.312,377.687 170.812,370.02 177.5,362.5C 170.127,354.627 162.627,346.961 155,339.5C 154.333,338.5 154.333,337.5 155,336.5C 156.394,334.612 157.56,332.612 158.5,330.5C 165.148,317.864 171.315,304.864 177,291.5C 182.964,282.401 188.798,273.235 194.5,264C 194.2,261.976 193.367,261.476 192,262.5C 185,273.833 178,285.167 171,296.5C 167.13,305.781 163.463,315.115 160,324.5C 159.617,323.944 159.117,323.611 158.5,323.5C 160.525,306.712 163.192,290.045 166.5,273.5C 115.464,258.265 64.4644,243.098 13.5,228C 4.19851,222.762 1.69851,215.262 6,205.5C 17.6031,186.612 29.9365,168.279 43,150.5C 56.1602,126.171 70.3268,102.504 85.5,79.5C 86.0016,78.479 86.6683,78.3123 87.5,79C 94.0285,87.7699 102.695,93.2699 113.5,95.5C 113.392,97.7834 112.559,99.7834 111,101.5C 102.562,111.27 94.8957,121.603 88,132.5C 68.8333,162.833 49.6667,193.167 30.5,223.5C 31.6507,224.731 32.8173,224.731 34,223.5C 37.293,217.215 41.293,211.548 46,206.5C 89.9232,219.585 133.757,233.085 177.5,247C 186.822,249.363 196.155,251.53 205.5,253.5C 201.844,269.105 198.511,284.772 195.5,300.5 Z"/></g>
<g><path style="opacity:1" fill="#1b1c1b" d="M 367.5,139.5 C 366.5,139.833 365.833,140.5 365.5,141.5C 362.698,138.524 360.031,135.358 357.5,132C 355.726,131.03 353.893,130.196 352,129.5C 342.652,134.517 334.152,140.684 326.5,148C 327.624,150.411 329.124,152.578 331,154.5C 336.886,149.613 343.053,145.113 349.5,141C 351.167,140.333 352.833,140.333 354.5,141C 347.383,145.783 340.55,150.949 334,156.5C 333.7,158.066 334.2,159.399 335.5,160.5C 334.833,160.833 334.167,161.167 333.5,161.5C 330.995,159.137 328.495,156.804 326,154.5C 322.795,156.624 321.795,159.624 323,163.5C 327.432,168.44 332.265,172.773 337.5,176.5C 336.508,176.328 335.842,176.662 335.5,177.5C 332.726,176.277 330.059,174.777 327.5,173C 315.054,168.806 306.221,172.639 301,184.5C 298.522,206.022 308.022,215.522 329.5,213C 336.876,210.131 341.543,204.964 343.5,197.5C 344.338,197.842 344.672,198.508 344.5,199.5C 344.313,201.564 343.813,203.564 343,205.5C 339.549,208.956 336.882,212.956 335,217.5C 331.537,229.716 327.037,241.383 321.5,252.5C 321.631,251.761 321.464,251.094 321,250.5C 320.768,251.737 320.268,252.737 319.5,253.5C 321.694,244.586 324.694,235.919 328.5,227.5C 322.47,226.808 316.47,225.975 310.5,225C 308.283,223.732 306.283,222.232 304.5,220.5C 305,220.167 305.5,219.833 306,219.5C 313.94,224.137 322.106,224.637 330.5,221C 331.376,219.414 332.376,217.914 333.5,216.5C 327.261,216.474 320.928,216.307 314.5,216C 309.517,214.174 305.183,211.341 301.5,207.5C 300.763,216.937 298.429,225.937 294.5,234.5C 289.351,238.63 285.851,237.297 284,230.5C 282.796,226.078 281.963,221.578 281.5,217C 281.396,214.855 282.063,213.021 283.5,211.5C 284.676,218.243 286.176,224.91 288,231.5C 288.833,232.5 289.667,233.5 290.5,234.5C 293.74,229.614 295.907,224.281 297,218.5C 297.766,206.14 298.433,193.807 299,181.5C 303.944,172.107 311.778,167.44 322.5,167.5C 320.757,165.178 319.423,162.678 318.5,160C 319.863,157.125 321.03,154.292 322,151.5C 310.675,144.043 298.175,140.709 284.5,141.5C 276.209,141.616 268.042,142.616 260,144.5C 255.335,145.223 252.502,143.39 251.5,139C 254.354,133.718 258.687,130.052 264.5,128C 288.08,123.549 310.414,127.049 331.5,138.5C 335.043,137.129 338.21,135.129 341,132.5C 338.115,122.3 331.948,114.467 322.5,109C 315.317,105.05 307.651,102.717 299.5,102C 266.536,98.2262 244.036,111.726 232,142.5C 222.058,168.94 215.891,196.273 213.5,224.5C 212.312,248.28 220.979,267.446 239.5,282C 251.157,289.202 263.823,291.536 277.5,289C 289.267,287.283 299.267,282.116 307.5,273.5C 303.507,272.387 299.507,272.387 295.5,273.5C 295.5,272.5 295.5,271.5 295.5,270.5C 299.514,270.666 303.514,270.499 307.5,270C 310.883,268.314 313.883,266.147 316.5,263.5C 316.328,264.492 316.662,265.158 317.5,265.5C 308.361,279.303 295.694,287.97 279.5,291.5C 273.34,291.982 267.34,292.649 261.5,293.5C 266.352,307.738 270.352,322.238 273.5,337C 273.333,338.167 273.167,339.333 273,340.5C 266.314,347.685 259.814,355.018 253.5,362.5C 259.85,369.683 266.683,376.35 274,382.5C 274.667,384.5 275.333,386.5 276,388.5C 276.333,412.167 276.667,435.833 277,459.5C 277.354,463.354 277.854,467.188 278.5,471C 278.32,473.241 277.487,473.741 276,472.5C 275.24,468.181 274.573,463.848 274,459.5C 273.667,435.167 273.333,410.833 273,386.5C 265.04,378.706 257.207,370.706 249.5,362.5C 257.193,354.262 264.526,345.762 271.5,337C 267.549,322.023 263.215,307.19 258.5,292.5C 252.763,291.032 247.097,289.365 241.5,287.5C 240.674,292.316 240.174,297.316 240,302.5C 239.828,295.987 239.328,289.653 238.5,283.5C 233.489,282.808 228.489,281.974 223.5,281C 220.761,279.974 218.428,278.474 216.5,276.5C 217.833,276.5 219.167,276.5 220.5,276.5C 223.871,278.68 227.538,279.514 231.5,279C 223.301,271.604 217.634,262.604 214.5,252C 214.164,250.97 213.497,250.47 212.5,250.5C 210.833,249.833 209.167,249.167 207.5,248.5C 208.833,248.5 210.167,248.5 211.5,248.5C 212.139,247.903 212.472,247.07 212.5,246C 211.992,241.665 211.325,237.499 210.5,233.5C 210.826,229.116 210.492,224.783 209.5,220.5C 201.189,215.403 198.022,208.069 200,198.5C 203.681,192.323 209.014,188.323 216,186.5C 219.414,164.925 226.414,144.592 237,125.5C 244.937,112.779 256.103,104.279 270.5,100C 302.437,91.6955 327.27,101.195 345,128.5C 348.314,126.693 351.814,126.193 355.5,127C 359.704,131.036 363.704,135.202 367.5,139.5 Z"/></g>
<g><path style="opacity:1" fill="#e1d3c8" d="M 319.5,253.5 C 314.668,253.168 309.668,253.168 304.5,253.5C 308.468,254.1 312.135,255.433 315.5,257.5C 317.546,259.281 317.88,261.281 316.5,263.5C 313.883,266.147 310.883,268.314 307.5,270C 303.514,270.499 299.514,270.666 295.5,270.5C 295.5,271.5 295.5,272.5 295.5,273.5C 299.507,272.387 303.507,272.387 307.5,273.5C 299.267,282.116 289.267,287.283 277.5,289C 263.823,291.536 251.157,289.202 239.5,282C 220.979,267.446 212.312,248.28 213.5,224.5C 215.891,196.273 222.058,168.94 232,142.5C 244.036,111.726 266.536,98.2262 299.5,102C 307.651,102.717 315.317,105.05 322.5,109C 331.948,114.467 338.115,122.3 341,132.5C 338.21,135.129 335.043,137.129 331.5,138.5C 310.414,127.049 288.08,123.549 264.5,128C 258.687,130.052 254.354,133.718 251.5,139C 252.502,143.39 255.335,145.223 260,144.5C 268.042,142.616 276.209,141.616 284.5,141.5C 298.175,140.709 310.675,144.043 322,151.5C 321.03,154.292 319.863,157.125 318.5,160C 319.423,162.678 320.757,165.178 322.5,167.5C 311.778,167.44 303.944,172.107 299,181.5C 298.433,193.807 297.766,206.14 297,218.5C 295.907,224.281 293.74,229.614 290.5,234.5C 289.667,233.5 288.833,232.5 288,231.5C 286.176,224.91 284.676,218.243 283.5,211.5C 282.063,213.021 281.396,214.855 281.5,217C 281.963,221.578 282.796,226.078 284,230.5C 285.851,237.297 289.351,238.63 294.5,234.5C 298.429,225.937 300.763,216.937 301.5,207.5C 305.183,211.341 309.517,214.174 314.5,216C 320.928,216.307 327.261,216.474 333.5,216.5C 332.376,217.914 331.376,219.414 330.5,221C 322.106,224.637 313.94,224.137 306,219.5C 305.5,219.833 305,220.167 304.5,220.5C 306.283,222.232 308.283,223.732 310.5,225C 316.47,225.975 322.47,226.808 328.5,227.5C 324.694,235.919 321.694,244.586 319.5,253.5 Z"/></g>
<g><path style="opacity:1" fill="#698993" d="M 219.5,115.5 C 220.468,117.607 220.802,119.941 220.5,122.5C 219.167,122.5 217.833,122.5 216.5,122.5C 217.209,121.596 218.209,121.263 219.5,121.5C 219.5,119.5 219.5,117.5 219.5,115.5 Z"/></g>
<g><path style="opacity:1" fill="#5c7a81" d="M 387.5,124.5 C 390.247,124.187 392.914,124.52 395.5,125.5C 395.376,126.107 395.043,126.44 394.5,126.5C 392.167,125.833 389.833,125.167 387.5,124.5 Z"/></g>
<g><path style="opacity:1" fill="#b3daec" d="M 269.5,129.5 C 290.424,127.252 310.09,131.085 328.5,141C 327.21,143.292 325.543,145.292 323.5,147C 315.479,143.772 307.145,141.106 298.5,139C 290.5,138.333 282.5,138.333 274.5,139C 268.267,140.642 261.934,141.475 255.5,141.5C 255.104,138.956 255.771,136.789 257.5,135C 261.49,132.858 265.49,131.025 269.5,129.5 Z"/></g>
<g><path style="opacity:1" fill="#dbd1c5" d="M 365.5,141.5 C 371.205,147.038 376.372,153.038 381,159.5C 381.285,168.51 380.952,177.51 380,186.5C 378.985,192.866 376.152,198.2 371.5,202.5C 369.545,203.323 367.545,203.49 365.5,203C 361.154,199.988 357.488,196.321 354.5,192C 354.975,190.237 355.642,188.57 356.5,187C 361.572,187.092 365.739,185.258 369,181.5C 373.25,169.554 370.583,168.221 361,177.5C 360.833,177.833 360.667,178.167 360.5,178.5C 361.333,178.833 362.167,179.167 363,179.5C 364.446,178.921 365.613,178.921 366.5,179.5C 364.469,181.522 362.135,183.189 359.5,184.5C 354.59,181.436 352.757,177.103 354,171.5C 358.033,167.132 362.366,163.132 367,159.5C 367.749,158.365 367.583,157.365 366.5,156.5C 359.831,161.671 353.665,167.337 348,173.5C 345.464,170.919 343.298,168.086 341.5,165C 347.726,160.296 353.893,155.463 360,150.5C 360.749,149.365 360.583,148.365 359.5,147.5C 352.737,153.099 345.57,158.099 338,162.5C 336.989,161.944 336.156,161.278 335.5,160.5C 334.2,159.399 333.7,158.066 334,156.5C 340.55,150.949 347.383,145.783 354.5,141C 352.833,140.333 351.167,140.333 349.5,141C 343.053,145.113 336.886,149.613 331,154.5C 329.124,152.578 327.624,150.411 326.5,148C 334.152,140.684 342.652,134.517 352,129.5C 353.893,130.196 355.726,131.03 357.5,132C 360.031,135.358 362.698,138.524 365.5,141.5 Z"/></g>
<g><path style="opacity:0.832" fill="#101010" d="M 371.5,202.5 C 371.5,203.167 371.833,203.5 372.5,203.5C 371.086,205.054 369.419,206.388 367.5,207.5C 369.524,209.69 371.357,212.023 373,214.5C 374.765,216.774 376.932,218.441 379.5,219.5C 386.887,216.465 391.22,211.131 392.5,203.5C 392.5,205.833 392.5,208.167 392.5,210.5C 388.493,216.838 383.16,221.838 376.5,225.5C 395.521,247.353 414.354,269.353 433,291.5C 433.615,293.116 434.615,294.449 436,295.5C 436.49,296.793 436.657,298.127 436.5,299.5C 435.833,299.5 435.167,299.5 434.5,299.5C 428.213,291.374 421.713,283.374 415,275.5C 412.408,272.238 409.241,269.738 405.5,268C 379.485,267.166 353.485,265.999 327.5,264.5C 324.083,264.539 320.75,264.873 317.5,265.5C 316.662,265.158 316.328,264.492 316.5,263.5C 317.88,261.281 317.546,259.281 315.5,257.5C 312.135,255.433 308.468,254.1 304.5,253.5C 309.668,253.168 314.668,253.168 319.5,253.5C 320.268,252.737 320.768,251.737 321,250.5C 321.464,251.094 321.631,251.761 321.5,252.5C 321.134,254.905 320.467,257.238 319.5,259.5C 319.833,260.167 320.167,260.833 320.5,261.5C 321.27,259.728 322.603,258.728 324.5,258.5C 327.86,259.519 331.193,260.519 334.5,261.5C 333.196,257.292 332.03,252.959 331,248.5C 328.912,241.587 331.412,237.42 338.5,236C 345.83,235.145 353.163,234.311 360.5,233.5C 354.717,225.768 350.384,217.268 347.5,208C 348.473,204.355 350.306,201.188 353,198.5C 353.667,197.5 353.667,196.5 353,195.5C 348.009,192.272 345.176,193.606 344.5,199.5C 344.672,198.508 344.338,197.842 343.5,197.5C 343.665,194.15 343.498,190.817 343,187.5C 341.053,183.724 338.553,180.39 335.5,177.5C 335.842,176.662 336.508,176.328 337.5,176.5C 339.98,177.912 342.313,179.578 344.5,181.5C 345.641,179.579 345.808,177.579 345,175.5C 340.931,170.94 337.098,166.274 333.5,161.5C 334.167,161.167 334.833,160.833 335.5,160.5C 336.156,161.278 336.989,161.944 338,162.5C 345.57,158.099 352.737,153.099 359.5,147.5C 360.583,148.365 360.749,149.365 360,150.5C 353.893,155.463 347.726,160.296 341.5,165C 343.298,168.086 345.464,170.919 348,173.5C 353.665,167.337 359.831,161.671 366.5,156.5C 367.583,157.365 367.749,158.365 367,159.5C 362.366,163.132 358.033,167.132 354,171.5C 352.757,177.103 354.59,181.436 359.5,184.5C 362.135,183.189 364.469,181.522 366.5,179.5C 365.613,178.921 364.446,178.921 363,179.5C 362.167,179.167 361.333,178.833 360.5,178.5C 360.667,178.167 360.833,177.833 361,177.5C 370.583,168.221 373.25,169.554 369,181.5C 365.739,185.258 361.572,187.092 356.5,187C 355.642,188.57 354.975,190.237 354.5,192C 357.488,196.321 361.154,199.988 365.5,203C 367.545,203.49 369.545,203.323 371.5,202.5 Z M 356.5,202.5 C 354.8,204.21 353.467,206.21 352.5,208.5C 356.742,218.895 362.408,228.395 369.5,237C 369.043,237.414 368.709,237.914 368.5,238.5C 358.044,238.987 347.711,240.154 337.5,242C 336.056,243.126 335.39,244.626 335.5,246.5C 336.429,250.954 337.762,255.287 339.5,259.5C 359.791,261.788 380.125,262.455 400.5,261.5C 390.52,249.685 380.353,238.019 370,226.5C 370.333,224.167 370.667,221.833 371,219.5C 365.9,213.913 361.067,208.246 356.5,202.5 Z"/></g>
<g><path style="opacity:1" fill="#191918" d="M 258.5,148.5 C 271.814,146.75 282.981,150.75 292,160.5C 296.544,170.42 296.544,180.42 292,190.5C 287.129,198.937 279.795,202.937 270,202.5C 247.371,201.543 237.371,189.877 240,167.5C 243.713,158.622 249.88,152.289 258.5,148.5 Z"/></g>
<g><path style="opacity:1" fill="#fafaf9" d="M 259.5,151.5 C 269.471,150.484 278.471,152.984 286.5,159C 292.73,166.886 294.23,175.719 291,185.5C 286.345,196.41 278.179,200.91 266.5,199C 244.915,194.991 238.082,182.824 246,162.5C 249.666,157.758 254.166,154.092 259.5,151.5 Z"/></g>
<g><path style="opacity:1" fill="#dad0c6" d="M 333.5,161.5 C 337.098,166.274 340.931,170.94 345,175.5C 345.808,177.579 345.641,179.579 344.5,181.5C 342.313,179.578 339.98,177.912 337.5,176.5C 332.265,172.773 327.432,168.44 323,163.5C 321.795,159.624 322.795,156.624 326,154.5C 328.495,156.804 330.995,159.137 333.5,161.5 Z"/></g>
<g><path style="opacity:1" fill="#f9f9f9" d="M 335.5,177.5 C 338.553,180.39 341.053,183.724 343,187.5C 343.498,190.817 343.665,194.15 343.5,197.5C 341.543,204.964 336.876,210.131 329.5,213C 308.022,215.522 298.522,206.022 301,184.5C 306.221,172.639 315.054,168.806 327.5,173C 330.059,174.777 332.726,176.277 335.5,177.5 Z"/></g>
<g><path style="opacity:1" fill="#d9d0c5" d="M 349.5,178.5 C 351.943,179.499 353.609,181.332 354.5,184C 353.391,186.047 352.724,188.213 352.5,190.5C 344.655,189.295 343.489,186.295 349,181.5C 349.483,180.552 349.649,179.552 349.5,178.5 Z"/></g>
<g><path style="opacity:1" fill="#191919" d="M 274.5,187.5 C 277.058,189.434 278.391,192.101 278.5,195.5C 275.5,195.5 272.5,195.5 269.5,195.5C 269.5,193.5 269.5,191.5 269.5,189.5C 271.698,189.88 273.365,189.213 274.5,187.5 Z"/></g>
<g><path style="opacity:1" fill="#d8cec5" d="M 212.5,191.5 C 213.693,191.97 214.36,192.97 214.5,194.5C 212.383,201.657 211.383,208.99 211.5,216.5C 205.341,214.558 202.341,210.225 202.5,203.5C 203.31,197.359 206.644,193.359 212.5,191.5 Z"/></g>
<g><path style="opacity:1" fill="#191918" d="M 233.5,193.5 C 236.628,196.398 239.294,199.732 241.5,203.5C 248.182,207.081 255.182,209.581 262.5,211C 252.2,213.045 243.366,210.211 236,202.5C 234.092,199.794 233.259,196.794 233.5,193.5 Z"/></g>
<g><path style="opacity:1" fill="#aed9ea" d="M 321.5,252.5 C 327.037,241.383 331.537,229.716 335,217.5C 336.882,212.956 339.549,208.956 343,205.5C 343.813,203.564 344.313,201.564 344.5,199.5C 345.176,193.606 348.009,192.272 353,195.5C 353.667,196.5 353.667,197.5 353,198.5C 350.306,201.188 348.473,204.355 347.5,208C 350.384,217.268 354.717,225.768 360.5,233.5C 353.163,234.311 345.83,235.145 338.5,236C 331.412,237.42 328.912,241.587 331,248.5C 332.03,252.959 333.196,257.292 334.5,261.5C 331.193,260.519 327.86,259.519 324.5,258.5C 322.603,258.728 321.27,259.728 320.5,261.5C 320.167,260.833 319.833,260.167 319.5,259.5C 320.467,257.238 321.134,254.905 321.5,252.5 Z"/></g>
<g><path style="opacity:1" fill="#9fe0dd" d="M 392.5,203.5 C 391.22,211.131 386.887,216.465 379.5,219.5C 376.932,218.441 374.765,216.774 373,214.5C 371.357,212.023 369.524,209.69 367.5,207.5C 369.419,206.388 371.086,205.054 372.5,203.5C 376.106,201.563 379.106,198.897 381.5,195.5C 384.167,197.5 386.5,199.833 388.5,202.5C 390.658,199.67 393.324,199.003 396.5,200.5C 394.816,201.15 393.483,202.15 392.5,203.5 Z"/></g>
<g><path style="opacity:1" fill="#161616" d="M 326.5,201.5 C 328.052,203.035 329.385,204.869 330.5,207C 329.207,207.49 327.873,207.657 326.5,207.5C 326.762,208.978 326.429,210.311 325.5,211.5C 324.264,210.754 322.93,210.421 321.5,210.5C 321.993,208.194 322.326,205.861 322.5,203.5C 324.38,203.771 325.713,203.104 326.5,201.5 Z"/></g>
<g><path style="opacity:1" fill="#f8f8f7" d="M 436.5,299.5 C 436.657,298.127 436.49,296.793 436,295.5C 434.615,294.449 433.615,293.116 433,291.5C 414.354,269.353 395.521,247.353 376.5,225.5C 383.16,221.838 388.493,216.838 392.5,210.5C 394.966,208.26 396.966,205.593 398.5,202.5C 399.002,201.479 399.668,201.312 400.5,202C 419.905,228.075 440.072,253.575 461,278.5C 463.205,297.457 455.038,304.457 436.5,299.5 Z"/></g>
<g><path style="opacity:1" fill="#181818" d="M 231.5,233.5 C 236.675,233.272 241.675,234.105 246.5,236C 247.337,237.011 247.67,238.178 247.5,239.5C 243.778,238.704 240.111,237.704 236.5,236.5C 231.44,236.387 229.606,238.721 231,243.5C 231.667,244.833 232.333,246.167 233,247.5C 235.965,249.724 238.798,252.058 241.5,254.5C 235.063,254.283 230.563,250.95 228,244.5C 226.662,239.96 227.829,236.293 231.5,233.5 Z"/></g>
<g><path style="opacity:1" fill="#7596a2" d="M 210.5,233.5 C 211.325,237.499 211.992,241.665 212.5,246C 212.472,247.07 212.139,247.903 211.5,248.5C 210.746,243.537 210.413,238.537 210.5,233.5 Z"/></g>
<g><path style="opacity:1" fill="#171717" d="M 278.5,258.5 C 280.631,259.314 282.964,259.814 285.5,260C 294.16,260.5 302.827,260.666 311.5,260.5C 310.4,261.558 309.066,262.392 307.5,263C 286.812,265.221 267.478,261.221 249.5,251C 246.37,248.872 243.537,246.372 241,243.5C 240.312,242.668 240.479,242.002 241.5,241.5C 252.192,250.679 264.526,256.345 278.5,258.5 Z"/></g>
<g><path style="opacity:0.792" fill="#090706" d="M 745.5,1000.5 C 745.5,1005.83 745.5,1011.17 745.5,1016.5C 730.049,1018.68 714.716,1021.01 699.5,1023.5C 689.5,1023.5 679.5,1023.5 669.5,1023.5C 668.016,1022.53 667.516,1021.19 668,1019.5C 680.58,1007.58 693.746,996.416 707.5,986C 706.789,984.745 705.956,983.579 705,982.5C 703.308,984.245 701.475,984.578 699.5,983.5C 677.43,953.699 656.596,923.032 637,891.5C 636.011,888.544 635.178,885.544 634.5,882.5C 642.915,847.424 651.581,812.424 660.5,777.5C 655.198,776.337 649.864,776.171 644.5,777C 613.109,799.39 581.443,821.39 549.5,843C 560.362,871.92 571.029,900.92 581.5,930C 581.031,931.887 580.031,933.387 578.5,934.5C 580.932,940.628 583.265,946.794 585.5,953C 587.267,954.826 589.434,955.993 592,956.5C 593.562,966.439 593.895,976.439 593,986.5C 589.165,988.54 584.998,989.707 580.5,990C 558.836,990.5 537.169,990.667 515.5,990.5C 515.744,987.737 517.077,985.571 519.5,984C 533.021,974.078 546.688,964.411 560.5,955C 558.608,951.325 557.108,947.491 556,943.5C 553.632,943.59 551.132,943.257 548.5,942.5C 534.513,911.038 521.013,879.371 508,847.5C 503.164,836.549 504.997,827.049 513.5,819C 542.167,796.333 570.833,773.667 599.5,751C 600.059,750.275 600.392,749.442 600.5,748.5C 597.264,731.612 594.764,714.612 593,697.5C 589.771,699.35 586.271,700.35 582.5,700.5C 578.157,699.831 573.823,699.164 569.5,698.5C 569.261,696.533 569.594,694.699 570.5,693C 565.828,691.497 563.161,688.33 562.5,683.5C 560.833,683.5 559.167,683.5 557.5,683.5C 557.335,679.818 557.501,676.152 558,672.5C 558.374,671.584 558.874,670.75 559.5,670C 558.183,667.562 557.349,665.062 557,662.5C 563.806,661.429 570.639,661.263 577.5,662C 548.833,650.667 520.167,639.333 491.5,628C 482.707,623.632 480.207,616.798 484,607.5C 490.276,597.558 496.943,587.892 504,578.5C 503.955,573.57 504.955,568.903 507,564.5C 514.93,553.401 523.43,542.734 532.5,532.5C 501.183,531.265 476.683,517.932 459,492.5C 447.96,471.633 443.46,449.466 445.5,426C 441.735,420.397 440.568,414.231 442,407.5C 443.852,397.872 445.518,388.205 447,378.5C 450.48,371.345 455.147,365.011 461,359.5C 472.571,338.278 490.405,326.112 514.5,323C 556.409,317.558 590.576,331.058 617,363.5C 633.554,390.019 637.054,418.186 627.5,448C 627.862,449.225 628.362,450.391 629,451.5C 634.694,440.306 643.194,431.972 654.5,426.5C 658.205,419.81 661.872,413.143 665.5,406.5C 650.464,363.394 636.464,320.061 623.5,276.5C 624.145,275.354 624.978,274.354 626,273.5C 629.61,275.444 632.943,277.777 636,280.5C 636.776,271.804 636.61,263.138 635.5,254.5C 637.111,252.019 639.445,250.519 642.5,250C 646.041,248.745 649.541,248.578 653,249.5C 653.862,251.087 654.529,252.754 655,254.5C 656.133,252.789 657.633,252.289 659.5,253C 662.734,256.633 665.068,260.799 666.5,265.5C 667.967,265.723 669.467,266.056 671,266.5C 673.362,274.999 674.029,283.666 673,292.5C 671.361,300.776 668.861,308.776 665.5,316.5C 676.899,347.032 687.899,377.698 698.5,408.5C 697.498,412.671 695.998,416.671 694,420.5C 687.374,431.585 680.874,442.751 674.5,454C 676.923,457.379 677.09,460.879 675,464.5C 665.578,480.348 655.412,495.682 644.5,510.5C 656.461,526.664 666.628,543.997 675,562.5C 697.537,610.444 714.704,660.278 726.5,712C 725.833,713.667 725.167,715.333 724.5,717C 728.86,730.02 728.36,742.854 723,755.5C 707.495,797.35 691.995,839.183 676.5,881C 681.035,886.569 685.201,892.403 689,898.5C 701.333,918.5 713.667,938.5 726,958.5C 729.353,962.304 729.187,965.804 725.5,969C 728.876,974.253 732.376,979.42 736,984.5C 737.494,983.253 738.994,983.253 740.5,984.5C 742.499,989.858 744.166,995.191 745.5,1000.5 Z M 559.5,571.5 C 560.75,571.577 561.583,572.244 562,573.5C 570.029,592.635 576.029,612.302 580,632.5C 560.543,623.854 541.043,615.354 521.5,607C 523.167,604.667 524.833,602.333 526.5,600C 528.557,599.695 530.557,599.695 532.5,600C 542.07,590.933 551.07,581.433 559.5,571.5 Z"/></g>
<g><path style="opacity:1" fill="#d8cec4" d="M 212.5,250.5 C 213.497,250.47 214.164,250.97 214.5,252C 217.634,262.604 223.301,271.604 231.5,279C 227.538,279.514 223.871,278.68 220.5,276.5C 213.268,271.694 209.435,265.028 209,256.5C 210.394,254.612 211.56,252.612 212.5,250.5 Z"/></g>
<g><path style="opacity:1" fill="#44281c" d="M 648.5,254.5 C 647.914,256.243 647.581,258.076 647.5,260C 648.699,268.155 649.699,276.322 650.5,284.5C 649.5,284.5 648.5,284.5 647.5,284.5C 647.583,275.35 645.75,266.683 642,258.5C 641.501,262.486 641.334,266.486 641.5,270.5C 640.352,266.019 640.185,261.352 641,256.5C 643.301,255.133 645.801,254.466 648.5,254.5 Z"/></g>
<g><path style="opacity:1" fill="#f3c9a3" d="M 648.5,254.5 C 649.496,254.414 650.329,254.748 651,255.5C 653.854,265.625 655.521,275.959 656,286.5C 656.414,286.957 656.914,287.291 657.5,287.5C 657.833,286.333 658.167,285.167 658.5,284C 656.725,277.259 656.225,270.425 657,263.5C 657.667,262.833 658.333,262.167 659,261.5C 660.527,263.221 661.527,265.221 662,267.5C 662.168,275.521 662.668,283.521 663.5,291.5C 664.772,286.107 666.105,280.774 667.5,275.5C 669.216,291.303 665.883,305.97 657.5,319.5C 660.079,319.915 661.913,321.248 663,323.5C 673.368,351.604 683.534,379.771 693.5,408C 692.815,410.54 691.981,413.04 691,415.5C 683.556,428.059 676.39,440.726 669.5,453.5C 667.841,455.469 666.175,457.469 664.5,459.5C 658.572,456.406 653.739,452.073 650,446.5C 649.333,445.5 649.333,444.5 650,443.5C 652.178,439.806 654.345,436.139 656.5,432.5C 660.172,426.647 663.672,420.647 667,414.5C 668.444,412.845 670.278,412.178 672.5,412.5C 664.709,386.96 656.209,361.627 647,336.5C 644.452,327.195 642.119,317.862 640,308.5C 636.207,300.289 632.707,291.955 629.5,283.5C 630.002,282.479 630.668,282.312 631.5,283C 635.167,285.333 638.167,288.333 640.5,292C 641.448,292.483 642.448,292.649 643.5,292.5C 643.052,285.145 642.385,277.812 641.5,270.5C 641.334,266.486 641.501,262.486 642,258.5C 645.75,266.683 647.583,275.35 647.5,284.5C 648.5,284.5 649.5,284.5 650.5,284.5C 649.699,276.322 648.699,268.155 647.5,260C 647.581,258.076 647.914,256.243 648.5,254.5 Z"/></g>
<g><path style="opacity:1" fill="#817b75" d="M 278.5,258.5 C 290.238,258.914 301.238,259.581 311.5,260.5C 302.827,260.666 294.16,260.5 285.5,260C 282.964,259.814 280.631,259.314 278.5,258.5 Z"/></g>
<g><path style="opacity:1" fill="#f9f8f8" d="M 434.5,299.5 C 390.478,298.833 346.478,297.499 302.5,295.5C 297.025,294.511 291.358,294.178 285.5,294.5C 285.171,309.343 285.504,324.01 286.5,338.5C 287.448,358.531 288.948,378.531 291,398.5C 292.184,426.719 299.851,453.053 314,477.5C 327.333,501.5 340.667,525.5 354,549.5C 356.907,555.978 359.24,562.644 361,569.5C 366.981,603.328 371.647,637.328 375,671.5C 375.778,703.512 375.444,735.512 374,767.5C 372.511,780.803 371.344,780.803 370.5,767.5C 369.532,757.486 368.365,747.486 367,737.5C 362.559,715.19 358.226,692.857 354,670.5C 345.689,642.732 336.522,615.398 326.5,588.5C 324.703,580.941 322.203,573.608 319,566.5C 310.473,547.917 302.139,529.25 294,510.5C 290.98,503.783 287.48,497.449 283.5,491.5C 274.893,475.952 267.06,459.952 260,443.5C 249.9,413.667 243.9,383 242,351.5C 241.5,330.169 241.333,308.836 241.5,287.5C 247.097,289.365 252.763,291.032 258.5,292.5C 263.215,307.19 267.549,322.023 271.5,337C 264.526,345.762 257.193,354.262 249.5,362.5C 257.207,370.706 265.04,378.706 273,386.5C 273.333,410.833 273.667,435.167 274,459.5C 274.573,463.848 275.24,468.181 276,472.5C 277.487,473.741 278.32,473.241 278.5,471C 277.854,467.188 277.354,463.354 277,459.5C 276.667,435.833 276.333,412.167 276,388.5C 275.333,386.5 274.667,384.5 274,382.5C 266.683,376.35 259.85,369.683 253.5,362.5C 259.814,355.018 266.314,347.685 273,340.5C 273.167,339.333 273.333,338.167 273.5,337C 270.352,322.238 266.352,307.738 261.5,293.5C 266.511,293.666 271.511,293.499 276.5,293C 277.737,292.768 278.737,292.268 279.5,291.5C 295.694,287.97 308.361,279.303 317.5,265.5C 320.75,264.873 324.083,264.539 327.5,264.5C 353.485,265.999 379.485,267.166 405.5,268C 409.241,269.738 412.408,272.238 415,275.5C 421.713,283.374 428.213,291.374 434.5,299.5 Z"/></g>
<g><path style="opacity:1" fill="#9de5e6" d="M 216.5,276.5 C 218.428,278.474 220.761,279.974 223.5,281C 228.489,281.974 233.489,282.808 238.5,283.5C 236.327,326.2 239.16,368.533 247,410.5C 254.068,440.545 265.901,468.545 282.5,494.5C 287.954,503.743 292.621,513.41 296.5,523.5C 287.649,528.34 278.315,532.007 268.5,534.5C 269.188,529.586 268.021,525.253 265,521.5C 265.511,526.39 265.344,531.224 264.5,536C 252.378,539.615 240.045,542.115 227.5,543.5C 227.453,540.432 226.953,537.432 226,534.5C 225.29,533.027 224.124,532.36 222.5,532.5C 222.5,533.5 222.5,534.5 222.5,535.5C 222.674,537.861 223.007,540.194 223.5,542.5C 214.5,542.5 205.5,542.5 196.5,542.5C 192.453,534.196 189.286,525.529 187,516.5C 186.5,501.504 186.333,486.504 186.5,471.5C 187.926,455.02 188.592,438.354 188.5,421.5C 187.884,399.875 189.218,378.375 192.5,357C 192.215,353.465 191.215,352.965 189.5,355.5C 189.833,353.5 190.167,351.5 190.5,349.5C 191.458,349.953 192.292,350.619 193,351.5C 194.056,337.484 195.223,323.484 196.5,309.5C 198.551,294.517 201.885,279.85 206.5,265.5C 209.15,269.808 212.483,273.474 216.5,276.5 Z"/></g>
<g><path style="opacity:1" fill="#1d1d1d" d="M 158.5,330.5 C 158.5,328.167 158.5,325.833 158.5,323.5C 159.117,323.611 159.617,323.944 160,324.5C 163.463,315.115 167.13,305.781 171,296.5C 178,285.167 185,273.833 192,262.5C 193.367,261.476 194.2,261.976 194.5,264C 188.798,273.235 182.964,282.401 177,291.5C 171.315,304.864 165.148,317.864 158.5,330.5 Z"/></g>
<g><path style="opacity:1" fill="#b1b1b0" d="M 279.5,291.5 C 278.737,292.268 277.737,292.768 276.5,293C 271.511,293.499 266.511,293.666 261.5,293.5C 267.34,292.649 273.34,291.982 279.5,291.5 Z"/></g>
<g><path style="opacity:1" fill="#412517" d="M 645.5,294.5 C 649.518,296.101 652.684,298.768 655,302.5C 656.202,304.677 656.702,307.011 656.5,309.5C 655.5,309.5 654.5,309.5 653.5,309.5C 653.251,304.57 650.917,300.903 646.5,298.5C 645.571,297.311 645.238,295.978 645.5,294.5 Z"/></g>
<g><path style="opacity:1" fill="#848483" d="M 302.5,295.5 C 297.167,295.5 291.833,295.5 286.5,295.5C 286.5,309.833 286.5,324.167 286.5,338.5C 285.504,324.01 285.171,309.343 285.5,294.5C 291.358,294.178 297.025,294.511 302.5,295.5 Z"/></g>
<g><path style="opacity:1" fill="#223335" d="M 238.5,283.5 C 239.328,289.653 239.828,295.987 240,302.5C 240.174,297.316 240.674,292.316 241.5,287.5C 241.333,308.836 241.5,330.169 242,351.5C 243.9,383 249.9,413.667 260,443.5C 267.06,459.952 274.893,475.952 283.5,491.5C 282.596,492.209 282.263,493.209 282.5,494.5C 265.901,468.545 254.068,440.545 247,410.5C 239.16,368.533 236.327,326.2 238.5,283.5 Z"/></g>
<g><path style="opacity:1" fill="#1f3234" d="M 195.5,300.5 C 195.19,303.713 195.523,306.713 196.5,309.5C 195.223,323.484 194.056,337.484 193,351.5C 192.292,350.619 191.458,349.953 190.5,349.5C 190.795,332.882 192.462,316.548 195.5,300.5 Z"/></g>
<g><path style="opacity:1" fill="#854a12" d="M 513.5,327.5 C 548.618,323.041 579.118,332.708 605,356.5C 626.673,381.691 632.84,410.357 623.5,442.5C 620.864,441.029 618.364,439.363 616,437.5C 613.88,395.066 592.38,368.566 551.5,358C 516.807,351.123 487.307,360.29 463,385.5C 456.163,394.172 451.163,403.839 448,414.5C 447.333,410.5 447.333,406.5 448,402.5C 449.434,395.898 450.434,389.232 451,382.5C 453.764,373.997 458.764,366.997 466,361.5C 469.799,355.403 473.965,349.569 478.5,344C 488.962,335.767 500.629,330.267 513.5,327.5 Z"/></g>
<g><path style="opacity:1" fill="#f6f6f5" d="M 157.5,346.5 C 163.146,351.812 168.813,357.145 174.5,362.5C 168.982,368.184 163.649,374.017 158.5,380C 158.167,380.167 157.833,380.333 157.5,380.5C 156.548,378.955 156.215,377.288 156.5,375.5C 156.173,365.652 156.506,355.986 157.5,346.5 Z"/></g>
<g><path style="opacity:1" fill="#a0a09f" d="M 157.5,346.5 C 156.506,355.986 156.173,365.652 156.5,375.5C 155.177,365.659 155.177,355.659 156.5,345.5C 157.107,345.624 157.44,345.957 157.5,346.5 Z"/></g>
<g><path style="opacity:1" fill="#253536" d="M 188.5,421.5 C 187.12,437.314 186.454,453.314 186.5,469.5C 185.698,468.048 185.198,466.382 185,464.5C 184.83,475.008 184.33,485.341 183.5,495.5C 183.624,465.161 184.124,434.828 185,404.5C 186.105,388.118 187.605,371.784 189.5,355.5C 191.215,352.965 192.215,353.465 192.5,357C 189.218,378.375 187.884,399.875 188.5,421.5 Z"/></g>
<g><path style="opacity:1" fill="#f8cca3" d="M 604.5,485.5 C 599.693,493.896 593.36,501.063 585.5,507C 574.966,513.601 563.966,519.101 552.5,523.5C 514.582,532.923 484.749,521.59 463,489.5C 456.973,477.886 453.14,465.552 451.5,452.5C 451.335,449.482 451.502,446.482 452,443.5C 452.383,444.056 452.883,444.389 453.5,444.5C 462.66,464.757 476.993,469.257 496.5,458C 506.966,449.537 510.466,438.704 507,425.5C 503.232,415.4 496.066,409.233 485.5,407C 479.418,406.212 473.418,406.379 467.5,407.5C 466.284,405.52 465.451,403.52 465,401.5C 468.728,398.223 472.895,395.89 477.5,394.5C 479.631,393.686 481.964,393.186 484.5,393C 484.957,392.586 485.291,392.086 485.5,391.5C 477.031,390.594 469.031,392.261 461.5,396.5C 461.167,396.167 460.833,395.833 460.5,395.5C 471.524,379.307 486.524,368.474 505.5,363C 533.397,356.538 559.397,360.872 583.5,376C 602.154,392.149 611.488,412.649 611.5,437.5C 608.821,437.673 606.487,438.673 604.5,440.5C 612.98,440.222 619.48,443.555 624,450.5C 624.871,457.665 622.705,463.831 617.5,469C 614.794,470.548 611.96,471.714 609,472.5C 607.197,476.744 605.697,481.078 604.5,485.5 Z"/></g>
<g><path style="opacity:1" fill="#120f0b" d="M 547.5,381.5 C 542.636,381.914 537.969,381.914 533.5,381.5C 534.683,380.496 536.016,379.662 537.5,379C 545.833,378.333 554.167,378.333 562.5,379C 563.938,379.219 565.271,379.719 566.5,380.5C 560.202,381.496 553.868,381.83 547.5,381.5 Z"/></g>
<g><path style="opacity:1" fill="#a3856b" d="M 533.5,381.5 C 537.969,381.914 542.636,381.914 547.5,381.5C 542.668,383.058 537.668,383.391 532.5,382.5C 532.624,381.893 532.957,381.56 533.5,381.5 Z"/></g>
<g><path style="opacity:1" fill="#1c1a18" d="M 543.5,390.5 C 567.252,388.613 580.919,399.279 584.5,422.5C 582.209,440.954 571.709,450.62 553,451.5C 534.026,450.025 523.86,439.692 522.5,420.5C 523.589,406.309 530.589,396.309 543.5,390.5 Z"/></g>
<g><path style="opacity:1" fill="#fafafa" d="M 544.5,393.5 C 566.015,391.699 578.348,401.366 581.5,422.5C 580.519,436.324 573.186,444.824 559.5,448C 538.526,450.358 527.192,441.025 525.5,420C 526.331,407.155 532.665,398.321 544.5,393.5 Z"/></g>
<g><path style="opacity:1" fill="#e0bda0" d="M 477.5,394.5 C 472.895,395.89 468.728,398.223 465,401.5C 465.451,403.52 466.284,405.52 467.5,407.5C 453.093,416.004 448.426,428.337 453.5,444.5C 452.883,444.389 452.383,444.056 452,443.5C 451.502,446.482 451.335,449.482 451.5,452.5C 447.373,434.704 449.373,417.537 457.5,401C 463.89,397.925 470.557,395.759 477.5,394.5 Z"/></g>
<g><path style="opacity:1" fill="#1f1f1f" d="M 538.5,403.5 C 540.833,403.5 543.167,403.5 545.5,403.5C 545.04,408.656 542.374,410.323 537.5,408.5C 538.309,406.929 538.643,405.262 538.5,403.5 Z"/></g>
<g><path style="opacity:1" fill="#b5b4b4" d="M 159.5,413.5 C 160.338,413.842 160.672,414.508 160.5,415.5C 159.507,423.65 159.174,431.983 159.5,440.5C 158.185,431.598 158.185,422.598 159.5,413.5 Z"/></g>
<g><path style="opacity:1" fill="#1d1d1c" d="M 160.5,408.5 C 166.518,426.966 171.185,445.966 174.5,465.5C 172.675,466.571 171.508,465.904 171,463.5C 169.559,455.857 168.226,448.19 167,440.5C 164.046,432.351 161.88,424.018 160.5,415.5C 160.672,414.508 160.338,413.842 159.5,413.5C 160.301,411.958 160.634,410.292 160.5,408.5 Z"/></g>
<g><path style="opacity:1" fill="#3c2b16" d="M 656.5,432.5 C 654.345,436.139 652.178,439.806 650,443.5C 649.333,444.5 649.333,445.5 650,446.5C 653.739,452.073 658.572,456.406 664.5,459.5C 666.175,457.469 667.841,455.469 669.5,453.5C 669.527,455.199 670.194,456.533 671.5,457.5C 669.088,457.694 668.088,459.027 668.5,461.5C 667.167,461.5 666.5,462.167 666.5,463.5C 656.984,459.321 649.651,452.655 644.5,443.5C 643.675,442.614 642.675,442.281 641.5,442.5C 642.5,440.833 643.833,439.5 645.5,438.5C 647.29,441.047 648.956,440.714 650.5,437.5C 650.145,436.478 649.478,435.811 648.5,435.5C 651.124,434.506 653.79,433.506 656.5,432.5 Z"/></g>
<g><path style="opacity:1" fill="#d3b59e" d="M 648.5,435.5 C 649.478,435.811 650.145,436.478 650.5,437.5C 648.956,440.714 647.29,441.047 645.5,438.5C 646.167,437.167 647.167,436.167 648.5,435.5 Z"/></g>
<g><path style="opacity:1" fill="#fafa67" d="M 641.5,442.5 C 642.675,442.281 643.675,442.614 644.5,443.5C 649.651,452.655 656.984,459.321 666.5,463.5C 668.344,464.204 668.844,465.537 668,467.5C 656.541,484.621 644.708,501.454 632.5,518C 632.85,519.257 633.517,519.591 634.5,519C 636.293,517.22 637.96,515.387 639.5,513.5C 649.479,525.438 657.979,538.438 665,552.5C 675.829,576.172 686.163,600.172 696,624.5C 703.018,645.384 709.518,666.384 715.5,687.5C 715.41,690.152 716.076,692.485 717.5,694.5C 719.833,700.523 720.667,706.856 720,713.5C 712.452,720.033 703.952,725.2 694.5,729C 679.568,735.533 664.235,740.866 648.5,745C 633.894,746.889 619.227,747.722 604.5,747.5C 601.09,712.46 595.59,677.793 588,643.5C 587.148,642.429 586.315,641.429 585.5,640.5C 584.606,627.53 582.106,614.864 578,602.5C 574.285,591.402 570.285,580.402 566,569.5C 564.112,564.055 561.445,559.055 558,554.5C 558.333,558.167 558.667,561.833 559,565.5C 549.47,574.696 540.303,584.196 531.5,594C 525.812,594.824 520.812,593.324 516.5,589.5C 511.017,583.549 508.85,576.549 510,568.5C 519.997,554.689 530.831,541.522 542.5,529C 547.185,527.497 551.852,525.997 556.5,524.5C 566.871,520.482 576.871,515.648 586.5,510C 594.043,504.053 600.043,496.887 604.5,488.5C 608.086,486.42 611.253,483.754 614,480.5C 623.433,467.943 632.6,455.276 641.5,442.5 Z"/></g>
<g><path style="opacity:1" fill="#1b1713" d="M 515.5,451.5 C 516.552,451.351 517.552,451.517 518.5,452C 514.469,456.019 513.136,460.686 514.5,466C 516.5,466.667 518.5,466.667 520.5,466C 522.833,463.667 525.167,461.333 527.5,459C 528.483,458.409 529.15,458.743 529.5,460C 526.8,467.678 521.466,470.678 513.5,469C 509.99,467.093 508.824,464.26 510,460.5C 510.837,456.843 512.67,453.843 515.5,451.5 Z"/></g>
<g><path style="opacity:1" fill="#e0bda1" d="M 671.5,457.5 C 671.5,458.833 671.5,460.167 671.5,461.5C 670.5,461.5 669.5,461.5 668.5,461.5C 668.088,459.027 669.088,457.694 671.5,457.5 Z"/></g>
<g><path style="opacity:1" fill="#1c1a18" d="M 453.5,444.5 C 448.426,428.337 453.093,416.004 467.5,407.5C 473.418,406.379 479.418,406.212 485.5,407C 496.066,409.233 503.232,415.4 507,425.5C 510.466,438.704 506.966,449.537 496.5,458C 476.993,469.257 462.66,464.757 453.5,444.5 Z"/></g>
<g><path style="opacity:1" fill="#fafafa" d="M 469.5,409.5 C 479.78,407.882 489.113,410.049 497.5,416C 506.647,426.282 507.814,437.449 501,449.5C 491.498,460.784 479.998,463.617 466.5,458C 456.296,448.707 452.463,437.207 455,423.5C 458.257,417.136 463.091,412.469 469.5,409.5 Z"/></g>
<g><path style="opacity:1" fill="#1c1c1b" d="M 465.5,418.5 C 467.635,418.147 468.968,418.98 469.5,421C 468.764,424.361 466.764,425.695 463.5,425C 462.941,424.275 462.608,423.442 462.5,422.5C 463.286,420.959 464.286,419.626 465.5,418.5 Z"/></g>
<g><path style="opacity:1" fill="#201b17" d="M 556.5,459.5 C 575.206,460.051 583.373,469.718 581,488.5C 580.311,489.357 579.478,490.023 578.5,490.5C 578.04,483.674 576.873,477.008 575,470.5C 570.664,464.582 564.831,461.749 557.5,462C 556.748,461.329 556.414,460.496 556.5,459.5 Z"/></g>
<g><path style="opacity:1" fill="#678c92" d="M 188.5,421.5 C 188.592,438.354 187.926,455.02 186.5,471.5C 186.5,470.833 186.5,470.167 186.5,469.5C 186.454,453.314 187.12,437.314 188.5,421.5 Z"/></g>
<g><path style="opacity:1" fill="#2f110a" d="M 552.5,466.5 C 564.16,466.269 571.326,471.936 574,483.5C 575.691,494.141 572.191,502.641 563.5,509C 550.101,516.955 535.767,519.621 520.5,517C 509.333,512.5 501.5,504.667 497,493.5C 495.419,487.938 496.919,483.438 501.5,480C 520.761,483.128 537.761,478.628 552.5,466.5 Z"/></g>
<g><path style="opacity:1" fill="#700001" d="M 555.5,470.5 C 561.717,470.538 565.884,473.538 568,479.5C 569.361,485.407 569.861,491.407 569.5,497.5C 562.825,497.334 556.158,497.5 549.5,498C 547.947,499.097 546.614,500.43 545.5,502C 549.007,504.521 550.674,507.688 550.5,511.5C 542.154,514.935 533.488,516.102 524.5,515C 513.284,510.985 505.451,503.485 501,492.5C 500.505,490.527 500.338,488.527 500.5,486.5C 512.073,488.396 523.74,488.896 535.5,488C 538.153,486.345 540.486,484.345 542.5,482C 544.895,481.319 547.228,480.485 549.5,479.5C 550.78,475.917 552.78,472.917 555.5,470.5 Z"/></g>
<g><path style="opacity:1" fill="#c6c2be" d="M 545.5,473.5 C 546.5,473.5 547.5,473.5 548.5,473.5C 548.5,476.833 546.833,478.5 543.5,478.5C 543.392,476.486 544.058,474.82 545.5,473.5 Z"/></g>
<g><path style="opacity:1" fill="#dad8d6" d="M 532.5,480.5 C 538.013,480.224 538.679,481.558 534.5,484.5C 530.638,484.068 529.972,482.734 532.5,480.5 Z"/></g>
<g><path style="opacity:1" fill="#ccc0b5" d="M 509.5,481.5 C 511.977,481.051 513.977,481.717 515.5,483.5C 514.307,485.384 512.641,485.884 510.5,485C 509.663,483.989 509.33,482.822 509.5,481.5 Z"/></g>
<g><path style="opacity:1" fill="#b2a89f" d="M 520.5,482.5 C 522.604,482.201 524.604,482.534 526.5,483.5C 525.307,485.384 523.641,485.884 521.5,485C 520.748,484.329 520.414,483.496 520.5,482.5 Z"/></g>
<g><path style="opacity:1" fill="#b63c53" d="M 551.5,499.5 C 556.544,499.173 561.544,499.506 566.5,500.5C 565.167,503.833 562.833,506.167 559.5,507.5C 556.006,505.921 552.673,504.087 549.5,502C 550.381,501.292 551.047,500.458 551.5,499.5 Z"/></g>
<g><path style="opacity:1" fill="#1e1a13" d="M 604.5,485.5 C 604.5,486.5 604.5,487.5 604.5,488.5C 600.043,496.887 594.043,504.053 586.5,510C 576.871,515.648 566.871,520.482 556.5,524.5C 555.432,523.566 554.099,523.232 552.5,523.5C 563.966,519.101 574.966,513.601 585.5,507C 593.36,501.063 599.693,493.896 604.5,485.5 Z"/></g>
<g><path style="opacity:1" fill="#2c1b06" d="M 295.5,528.5 C 296.675,528.281 297.675,528.614 298.5,529.5C 299.052,531.333 299.885,533 301,534.5C 301.72,536.112 301.554,537.612 300.5,539C 287.397,544.931 273.731,549.431 259.5,552.5C 255.7,550.246 254.366,547.079 255.5,543C 269.482,539.489 282.815,534.655 295.5,528.5 Z"/></g>
<g><path style="opacity:1" fill="#c5dec4" d="M 186.5,527.5 C 193.198,544.733 200.865,561.567 209.5,578C 201.613,597.274 192.78,616.107 183,634.5C 182.934,598.812 184.101,563.146 186.5,527.5 Z"/></g>
<g><path style="opacity:1" fill="#81b9ba" d="M 222.5,535.5 C 224.04,537.838 224.706,540.505 224.5,543.5C 214.985,543.827 205.652,543.494 196.5,542.5C 205.5,542.5 214.5,542.5 223.5,542.5C 223.007,540.194 222.674,537.861 222.5,535.5 Z"/></g>
<g><path style="opacity:1" fill="#796030" d="M 162.5,679.5 C 163.167,679.167 163.833,678.833 164.5,678.5C 163.566,680.239 163.566,681.905 164.5,683.5C 180.556,649.715 196.389,615.715 212,581.5C 212.667,579.167 212.667,576.833 212,574.5C 209.597,570.365 207.763,566.032 206.5,561.5C 220.622,562.122 234.622,561.289 248.5,559C 258.852,556.441 269.185,553.774 279.5,551C 287.76,548.783 295.593,545.617 303,541.5C 309.712,552.927 315.379,564.927 320,577.5C 320.667,582.167 320.667,586.833 320,591.5C 311.277,651.506 302.444,711.506 293.5,771.5C 300.443,806.259 305.943,841.259 310,876.5C 311.462,882.553 313.129,888.553 315,894.5C 317.632,909.202 311.465,915.369 296.5,913C 294.508,912.426 293.008,911.259 292,909.5C 290.59,901.889 289.59,894.223 289,886.5C 283.537,860.063 277.537,833.729 271,807.5C 269.115,793.809 267.282,780.142 265.5,766.5C 270.936,707.344 277.769,648.344 286,589.5C 286.9,576.595 285.734,576.429 282.5,589C 266.78,589.545 251.113,590.712 235.5,592.5C 235.667,592.833 235.833,593.167 236,593.5C 238.381,594.435 240.881,594.768 243.5,594.5C 215.546,651.744 187.546,709.077 159.5,766.5C 160.048,768.556 161.214,770.223 163,771.5C 165.921,801.123 168.255,830.79 170,860.5C 173.692,876.978 175.525,893.645 175.5,910.5C 169.586,911.818 163.586,912.485 157.5,912.5C 154.061,912.446 150.894,911.78 148,910.5C 144.985,877.71 140.985,845.043 136,812.5C 133.958,793.87 132.625,775.203 132,756.5C 141.94,735.62 151.607,714.62 161,693.5C 161.845,688.874 162.345,684.207 162.5,679.5 Z"/></g>
<g><path style="opacity:1" fill="#ead74a" d="M 245.5,543.5 C 247.144,543.286 248.644,543.62 250,544.5C 250.944,547.461 252.11,550.294 253.5,553C 253.095,553.945 252.428,554.612 251.5,555C 243.901,556.988 236.234,557.988 228.5,558C 227.112,554.283 226.112,550.45 225.5,546.5C 232.435,546.415 239.101,545.415 245.5,543.5 Z"/></g>
<g><path style="opacity:1" fill="#2c1b06" d="M 199.5,547.5 C 206.712,547.219 213.878,547.552 221,548.5C 223.847,551.545 225.014,555.212 224.5,559.5C 217.461,558.829 210.461,557.829 203.5,556.5C 201.342,553.852 200.008,550.852 199.5,547.5 Z"/></g>
<g><path style="opacity:0.786" fill="#100e08" d="M 585.5,640.5 C 584.833,640.5 584.5,640.833 584.5,641.5C 583.814,640.152 582.814,638.985 581.5,638C 557.953,628.652 534.62,618.818 511.5,608.5C 516.537,605.762 520.204,601.762 522.5,596.5C 519.536,595.192 517.203,593.192 515.5,590.5C 516.167,590.5 516.5,590.167 516.5,589.5C 520.812,593.324 525.812,594.824 531.5,594C 540.303,584.196 549.47,574.696 559,565.5C 558.667,561.833 558.333,558.167 558,554.5C 561.445,559.055 564.112,564.055 566,569.5C 570.285,580.402 574.285,591.402 578,602.5C 582.106,614.864 584.606,627.53 585.5,640.5 Z M 559.5,571.5 C 551.07,581.433 542.07,590.933 532.5,600C 530.557,599.695 528.557,599.695 526.5,600C 524.833,602.333 523.167,604.667 521.5,607C 541.043,615.354 560.543,623.854 580,632.5C 576.029,612.302 570.029,592.635 562,573.5C 561.583,572.244 560.75,571.577 559.5,571.5 Z"/></g>
<g><path style="opacity:1" fill="#a4a4a4" d="M 165.5,525.5 C 166.974,539.805 167.64,554.305 167.5,569C 167.5,578.34 167.166,587.506 166.5,596.5C 166.623,572.825 166.29,549.158 165.5,525.5 Z"/></g>
<g><path style="opacity:1" fill="#f5cba5" d="M 515.5,590.5 C 517.203,593.192 519.536,595.192 522.5,596.5C 520.204,601.762 516.537,605.762 511.5,608.5C 534.62,618.818 557.953,628.652 581.5,638C 582.814,638.985 583.814,640.152 584.5,641.5C 587.494,655.129 589.994,668.796 592,682.5C 584.823,687.173 576.99,688.673 568.5,687C 568.043,686.586 567.709,686.086 567.5,685.5C 572.881,684.258 578.215,682.924 583.5,681.5C 584.289,681.217 584.956,680.717 585.5,680C 578.842,679.5 572.175,679.334 565.5,679.5C 564.5,679.5 563.5,679.5 562.5,679.5C 562.5,677.833 562.5,676.167 562.5,674.5C 568.167,674.5 573.833,674.5 579.5,674.5C 579.5,673.5 579.5,672.5 579.5,671.5C 575.486,671.666 571.486,671.499 567.5,671C 565.939,670.059 564.605,668.892 563.5,667.5C 568.456,666.506 573.456,666.173 578.5,666.5C 578.811,662.128 579.811,657.962 581.5,654C 578.707,655.082 575.707,655.415 572.5,655C 545.579,644.137 518.579,633.471 491.5,623C 487.797,619.604 486.631,615.437 488,610.5C 493.918,600.995 500.085,591.662 506.5,582.5C 507.002,581.479 507.668,581.312 508.5,582C 509.943,585.606 512.276,588.439 515.5,590.5 Z"/></g>
<g><path style="opacity:1" fill="#c9e4c8" d="M 169.5,769.5 C 168.167,769.5 166.833,769.5 165.5,769.5C 165.5,766.833 165.5,764.167 165.5,761.5C 192.656,706.522 219.822,651.522 247,596.5C 247.833,595.667 248.667,594.833 249.5,594C 260.485,593.128 271.485,592.628 282.5,592.5C 274.714,647.358 268.047,702.358 262.5,757.5C 230.754,755.959 199.754,759.959 169.5,769.5 Z"/></g>
<g><path style="opacity:1" fill="#c9e2c8" d="M 325.5,593.5 C 335.565,621.196 344.732,649.196 353,677.5C 358.674,705.7 363.507,734.034 367.5,762.5C 367.497,765.025 367.163,767.359 366.5,769.5C 345.171,760.369 322.837,756.369 299.5,757.5C 303.199,727.603 307.532,697.937 312.5,668.5C 313.972,664.081 314.638,659.414 314.5,654.5C 316.899,633.209 319.899,612.042 323.5,591C 325.061,590.812 325.728,591.645 325.5,593.5 Z"/></g>
<g><path style="opacity:1" fill="#1f1f1e" d="M 326.5,588.5 C 336.522,615.398 345.689,642.732 354,670.5C 358.226,692.857 362.559,715.19 367,737.5C 368.365,747.486 369.532,757.486 370.5,767.5C 369.686,765.369 369.186,763.036 369,760.5C 368.824,763.882 368.324,767.215 367.5,770.5C 366.893,770.376 366.56,770.043 366.5,769.5C 367.163,767.359 367.497,765.025 367.5,762.5C 363.507,734.034 358.674,705.7 353,677.5C 344.732,649.196 335.565,621.196 325.5,593.5C 326.451,592.081 326.784,590.415 326.5,588.5 Z"/></g>
<g><path style="opacity:1" fill="#8c9b8c" d="M 314.5,654.5 C 314.638,659.414 313.972,664.081 312.5,668.5C 312.362,663.586 313.028,658.919 314.5,654.5 Z"/></g>
<g><path style="opacity:1" fill="#675443" d="M 565.5,679.5 C 572.175,679.334 578.842,679.5 585.5,680C 584.956,680.717 584.289,681.217 583.5,681.5C 577.5,680.833 571.5,680.167 565.5,679.5 Z"/></g>
<g><path style="opacity:1" fill="#e3c7b5" d="M 590.5,686.5 C 591.5,686.5 592.5,686.5 593.5,686.5C 592.214,692.835 588.214,695.835 581.5,695.5C 580.167,695.167 578.833,694.833 577.5,694.5C 577.667,694.167 577.833,693.833 578,693.5C 582.019,690.745 586.185,688.411 590.5,686.5 Z"/></g>
<g><path style="opacity:1" fill="#aba945" d="M 715.5,687.5 C 716.924,689.515 717.59,691.848 717.5,694.5C 716.076,692.485 715.41,690.152 715.5,687.5 Z"/></g>
<g><path style="opacity:1" fill="#253b62" d="M 718.5,719.5 C 720.825,720.655 721.992,722.655 722,725.5C 722.839,732.567 722.506,739.567 721,746.5C 703.69,793.376 686.524,840.376 669.5,887.5C 671.06,887.481 672.56,887.148 674,886.5C 676.229,888.615 678.229,890.948 680,893.5C 693.906,917.231 708.406,940.565 723.5,963.5C 717.925,969.292 711.592,974.125 704.5,978C 703.5,978.667 702.5,978.667 701.5,978C 681.555,951.281 662.721,923.781 645,895.5C 643.318,892.136 641.651,888.802 640,885.5C 639.333,883.5 639.333,881.5 640,879.5C 649.156,843.209 658.156,806.875 667,770.5C 667.808,768.421 667.641,766.421 666.5,764.5C 665.365,766.707 664.699,769.04 664.5,771.5C 655.833,771.5 647.167,771.5 638.5,771.5C 638.838,774.325 637.838,776.492 635.5,778C 601.913,801.043 568.413,824.21 535,847.5C 534.251,848.635 534.417,849.635 535.5,850.5C 538.328,848.252 541.328,846.252 544.5,844.5C 555.203,871.25 565.37,898.25 575,925.5C 575.72,927.112 575.554,928.612 574.5,930C 567.056,933.872 559.389,936.372 551.5,937.5C 538.795,906.404 525.628,875.404 512,844.5C 509.689,838.26 510.022,832.26 513,826.5C 544.329,800.161 576.495,774.994 609.5,751C 649.232,751.694 685.566,741.194 718.5,719.5 Z"/></g>
<g><path style="opacity:1" fill="#6a7469" d="M 165.5,761.5 C 165.5,764.167 165.5,766.833 165.5,769.5C 166.833,769.5 168.167,769.5 169.5,769.5C 168.081,770.451 166.415,770.784 164.5,770.5C 164.19,767.287 164.523,764.287 165.5,761.5 Z"/></g>
<g><path style="opacity:1" fill="#f5f4f3" d="M 173.5,933.5 C 173.5,936.5 173.5,939.5 173.5,942.5C 172.209,942.263 171.209,942.596 170.5,943.5C 165.507,943.916 160.507,944.249 155.5,944.5C 155.541,934.779 154.874,925.113 153.5,915.5C 159.641,915.9 165.641,915.233 171.5,913.5C 173.133,920.06 173.8,926.727 173.5,933.5 Z"/></g>
<g><path style="opacity:1" fill="#f6f5f6" d="M 312.5,913.5 C 313.75,913.577 314.583,914.244 315,915.5C 317.17,925.512 319.337,935.512 321.5,945.5C 315.196,946.26 308.863,946.593 302.5,946.5C 300.828,936.49 299.161,926.49 297.5,916.5C 302.968,917.133 307.968,916.133 312.5,913.5 Z"/></g>
<g><path style="opacity:1" fill="#eeeeee" d="M 570.5,934.5 C 571.675,934.281 572.675,934.614 573.5,935.5C 576.962,942.223 579.629,949.223 581.5,956.5C 577.154,956.666 572.821,956.499 568.5,956C 567.584,955.626 566.75,955.126 566,954.5C 563.959,950.033 562.125,945.533 560.5,941C 560.833,940.167 561.167,939.333 561.5,938.5C 564.708,937.391 567.708,936.058 570.5,934.5 Z"/></g>
<g><path style="opacity:1" fill="#8e8e8e" d="M 173.5,933.5 C 174.479,936.625 174.813,939.958 174.5,943.5C 173.167,943.5 171.833,943.5 170.5,943.5C 171.209,942.596 172.209,942.263 173.5,942.5C 173.5,939.5 173.5,936.5 173.5,933.5 Z"/></g>
<g><path style="opacity:1" fill="#303130" d="M 170.5,946.5 C 173.833,946.5 177.167,946.5 180.5,946.5C 184.483,958.003 187.483,969.837 189.5,982C 189.167,983.5 188.833,985 188.5,986.5C 178.629,988.658 168.629,990.158 158.5,991C 144.5,991.667 130.5,991.667 116.5,991C 111.883,991.079 110.716,989.246 113,985.5C 121.934,975.232 132.1,966.399 143.5,959C 146.5,956 149.5,953 152.5,950C 158.644,948.867 164.644,947.701 170.5,946.5 Z"/></g>
<g><path style="opacity:1" fill="#313132" d="M 319.5,948.5 C 321.792,948.244 323.959,948.577 326,949.5C 332.286,960.798 335.453,972.798 335.5,985.5C 334.914,985.291 334.414,984.957 334,984.5C 333.727,986.101 333.227,987.601 332.5,989C 313.602,994.84 294.269,996.84 274.5,995C 270.64,994.895 266.974,994.062 263.5,992.5C 262.417,991.635 262.251,990.635 263,989.5C 272.03,980.136 281.363,971.136 291,962.5C 293.692,959.308 296.192,955.975 298.5,952.5C 305.693,951.452 312.693,950.119 319.5,948.5 Z"/></g>
<g><path style="opacity:1" fill="#f7f8f7" d="M 563.5,985.5 C 551.322,985.828 539.322,985.495 527.5,984.5C 539.959,974.895 553.126,966.229 567,958.5C 573.797,959.279 580.63,959.779 587.5,960C 588.126,960.75 588.626,961.584 589,962.5C 589.667,968.167 589.667,973.833 589,979.5C 588.575,983.306 586.408,985.14 582.5,985C 576.175,985.5 569.842,985.666 563.5,985.5 Z"/></g>
<g><path style="opacity:1" fill="#aaabaa" d="M 527.5,984.5 C 539.322,985.495 551.322,985.828 563.5,985.5C 551.007,986.66 538.34,986.827 525.5,986C 526.044,985.283 526.711,984.783 527.5,984.5 Z"/></g>
<g><path style="opacity:1" fill="#f7f7f6" d="M 703.5,1017.5 C 698.586,1017.36 693.919,1018.03 689.5,1019.5C 685.116,1019.83 680.783,1019.49 676.5,1018.5C 688.173,1006.32 701.173,995.824 715.5,987C 712.716,984.888 710.716,982.221 709.5,979C 713.005,976 716.671,973.167 720.5,970.5C 723.901,974.957 727.068,979.623 730,984.5C 730.483,985.448 730.649,986.448 730.5,987.5C 726.154,987.334 721.821,987.501 717.5,988C 716.692,988.308 716.025,988.808 715.5,989.5C 722.873,990.241 730.206,990.575 737.5,990.5C 740.127,997.593 741.46,1004.93 741.5,1012.5C 728.874,1014.54 716.208,1016.21 703.5,1017.5 Z"/></g>
<g><path style="opacity:1" fill="#424241" d="M 703.5,1017.5 C 699.081,1018.97 694.414,1019.64 689.5,1019.5C 693.919,1018.03 698.586,1017.36 703.5,1017.5 Z"/></g>
</svg>
